<svg width="14747" height="7718" viewBox="0 0 14747 7718" fill="none" xmlns="http://www.w3.org/2000/svg">
  <path d="M2216.36 639.87L8301.69 6711.03C8301.69 6711.03 9526.96 7887.33 11334.9 7668.33C12792.1 7491.34 13884.7 6601.7 14459.7 5268.4C15109.3 3761.45 14613 1975.5 13417.1 954.194C12287.1 -9.77806 11001.5 -185.106 9730.28 168.884C9730.28 168.884 8830.33 497.207 8387.35 897.196C8087.37 1154.52 8280.36 1250.85 8280.36 1250.85L9458.63 2440.15C9458.63 2440.15 9576.62 2590.15 9705.28 2493.82C9833.94 2397.49 10808.6 1668.84 11901.5 2397.15C12972.8 3200.8 12699.8 4443.76 12287.1 4947.08C11885.2 5437.73 11015.9 5480.4 10598.2 5171.41C10180.6 4862.42 6791.11 1368.85 6791.11 1368.85C6791.11 1368.85 5710.17 55.2201 4080.59 17.5545C3341.3 -9.4447 2901.99 104.552 2494.68 243.881C2087.37 383.211 2109.04 532.873 2216.36 639.87Z" fill="black"/>
  <path d="M952.1 1314.85C952.1 1314.85 244.14 2087.83 76.4822 3085.8C-97.8414 4121.77 -1.51352 5119.07 652.117 6039.71C1305.75 6960.35 2505.68 7718 3587.62 7718C4669.56 7718 5520.85 7422.34 6041.15 7025.35C6523.12 6658.7 6429.46 6690.36 6429.46 6690.36C6429.46 6690.36 6549.79 6586.03 6405.46 6430.7C6261.14 6275.37 5226.86 5268.74 5226.86 5268.74C5226.86 5268.74 5108.87 5114.74 4960.21 5235.4C4770.89 5389.07 3915.6 6017.72 2865.66 5353.4C1815.72 4689.09 2015.04 3548.12 2151.03 3253.46C2242.14 3062.38 2352.37 2881.02 2480.02 2712.14C2502.77 2679.24 2513.59 2639.55 2510.68 2599.66C2507.77 2559.77 2491.3 2522.07 2464.02 2492.82C2367.69 2380.15 1230.75 1271.19 1230.75 1271.19C1230.75 1271.19 1100.76 1130.19 952.1 1314.85Z" fill="black"/>
</svg>
